<?xml version="1.0" encoding="UTF-8"?>
<!DOCTYPE svg PUBLIC "-//W3C//DTD SVG 1.1//EN" "http://www.w3.org/Graphics/SVG/1.1/DTD/svg11.dtd">
<svg xmlns="http://www.w3.org/2000/svg" version="1.1" width="500px" height="500px" style="shape-rendering:geometricPrecision; text-rendering:geometricPrecision; image-rendering:optimizeQuality; fill-rule:evenodd; clip-rule:evenodd" xmlns:xlink="http://www.w3.org/1999/xlink">
<g><path style="opacity:1" fill="#050505" d="M 319.5,84.5 C 327.297,81.3155 334.63,81.9822 341.5,86.5C 341.651,90.1668 343.318,93.0002 346.5,95C 347.667,97.8333 348.833,100.667 350,103.5C 351.011,102.663 352.178,102.33 353.5,102.5C 360.016,109.83 362.016,118.163 359.5,127.5C 358.611,129.736 357.278,131.736 355.5,133.5C 361.777,139.167 363.944,146.167 362,154.5C 360.694,157.621 358.86,160.287 356.5,162.5C 352.507,163.535 348.507,164.702 344.5,166C 343.577,168.041 343.244,170.208 343.5,172.5C 341.629,181.915 336.963,189.581 329.5,195.5C 328.504,195.414 327.671,195.748 327,196.5C 326.333,201.5 326.333,206.5 327,211.5C 327.388,212.428 328.055,213.095 329,213.5C 330.301,213.04 331.634,212.706 333,212.5C 342.759,214.185 352.592,215.185 362.5,215.5C 374.037,217.371 382.037,223.704 386.5,234.5C 387.468,263.808 387.801,293.142 387.5,322.5C 385.566,328.767 381.566,333.1 375.5,335.5C 366.207,336.418 356.873,336.752 347.5,336.5C 343.274,334.044 338.607,333.044 333.5,333.5C 332.833,333.5 332.167,333.5 331.5,333.5C 329.898,331.926 327.898,331.259 325.5,331.5C 316.741,329.515 307.908,327.848 299,326.5C 290.766,327.9 282.6,329.566 274.5,331.5C 272.708,331.366 271.042,331.699 269.5,332.5C 267.533,332.739 265.699,332.406 264,331.5C 260.65,334.173 256.816,335.673 252.5,336C 243.473,336.716 234.473,336.549 225.5,335.5C 220.916,333.918 217.583,330.918 215.5,326.5C 214.04,318.371 213.04,310.204 212.5,302C 199.171,301.5 185.837,301.333 172.5,301.5C 164.926,297.821 162.426,291.821 165,283.5C 169.006,277.081 174.839,274.248 182.5,275C 184.434,270.046 186.434,265.213 188.5,260.5C 189.404,259.791 189.737,258.791 189.5,257.5C 172.833,257.5 156.167,257.5 139.5,257.5C 139.881,255.058 139.214,254.391 137.5,255.5C 135.833,254.667 134.167,253.833 132.5,253C 132.833,252.667 133.167,252.333 133.5,252C 132.333,251.5 131.5,250.667 131,249.5C 130.667,249.833 130.333,250.167 130,250.5C 128.848,247.56 127.848,244.56 127,241.5C 126.333,206.833 126.333,172.167 127,137.5C 127.395,134.793 127.895,132.127 128.5,129.5C 130.964,125.426 134.631,123.093 139.5,122.5C 172.833,122.5 206.167,122.5 239.5,122.5C 239.505,118.466 239.838,114.466 240.5,110.5C 243.044,105.616 246.877,101.95 252,99.5C 253.452,92.5623 257.286,87.5623 263.5,84.5C 269.167,83.1667 274.833,83.1667 280.5,84.5C 282.6,82.502 284.6,80.3353 286.5,78C 288.407,76.878 290.407,76.0447 292.5,75.5C 302.743,74.6469 311.743,77.6469 319.5,84.5 Z"/></g>
<g><path style="opacity:1" fill="#0a242a" d="M 319.5,84.5 C 311.743,77.6469 302.743,74.6469 292.5,75.5C 299.58,72.6703 306.58,73.1703 313.5,77C 316.118,79.1057 318.118,81.6057 319.5,84.5 Z"/></g>
<g><path style="opacity:0.498" fill="#03333c" d="M 280.5,84.5 C 274.833,83.1667 269.167,83.1667 263.5,84.5C 266.186,83.0092 269.186,82.3425 272.5,82.5C 275.527,82.2865 278.193,82.9532 280.5,84.5 Z"/></g>
<g><path style="opacity:0.839" fill="#0a242c" d="M 341.5,86.5 C 345.782,89.5471 348.448,93.7137 349.5,99C 350.686,100.412 352.019,101.579 353.5,102.5C 352.178,102.33 351.011,102.663 350,103.5C 348.833,100.667 347.667,97.8333 346.5,95C 343.318,93.0002 341.651,90.1668 341.5,86.5 Z"/></g>
<g><path style="opacity:1" fill="#0a242c" d="M 353.5,102.5 C 361.465,107.194 364.299,114.194 362,123.5C 361.8,125.32 360.966,126.653 359.5,127.5C 362.016,118.163 360.016,109.83 353.5,102.5 Z"/></g>
<g><path style="opacity:0.165" fill="#11454e" d="M 240.5,110.5 C 239.838,114.466 239.505,118.466 239.5,122.5C 206.167,122.5 172.833,122.5 139.5,122.5C 172.329,121.502 205.329,121.168 238.5,121.5C 238.116,117.511 238.783,113.845 240.5,110.5 Z"/></g>
<g><path style="opacity:1" fill="#53463c" d="M 280.5,129.5 C 280.5,130.167 280.5,130.833 280.5,131.5C 277.041,131.531 273.708,132.198 270.5,133.5C 269.289,132.726 269.289,131.893 270.5,131C 273.919,130.752 277.253,130.252 280.5,129.5 Z"/></g>
<g><path style="opacity:1" fill="#caa081" d="M 320.5,129.5 C 320.5,130.167 320.5,130.833 320.5,131.5C 312.951,132.544 307.951,136.711 305.5,144C 302.183,144.498 298.85,144.665 295.5,144.5C 293.315,136.985 288.315,132.652 280.5,131.5C 280.5,130.833 280.5,130.167 280.5,129.5C 284.042,128.13 287.209,126.13 290,123.5C 297.159,127.468 304.325,127.468 311.5,123.5C 314.004,126.252 317.004,128.252 320.5,129.5 Z"/></g>
<g><path style="opacity:1" fill="#fcfcfc" d="M 138.5,131.5 C 174.502,131.333 210.502,131.5 246.5,132C 246.957,132.414 247.291,132.914 247.5,133.5C 239.041,140.243 237.208,148.577 242,158.5C 246.028,163.43 251.195,166.097 257.5,166.5C 258.948,178.769 264.448,188.769 274,196.5C 274.499,201.489 274.666,206.489 274.5,211.5C 261.466,213.767 248.466,216.267 235.5,219C 230.393,220.446 226.06,223.112 222.5,227C 193.169,227.5 163.835,227.667 134.5,227.5C 134.333,196.832 134.5,166.165 135,135.5C 136.376,134.295 137.542,132.962 138.5,131.5 Z"/></g>
<g><path style="opacity:1" fill="#5c4f45" d="M 320.5,129.5 C 324.064,130.423 327.731,130.756 331.5,130.5C 331.649,131.552 331.483,132.552 331,133.5C 327.636,132.261 324.136,131.594 320.5,131.5C 320.5,130.833 320.5,130.167 320.5,129.5 Z"/></g>
<g><path style="opacity:1" fill="#030303" d="M 151.5,140.5 C 151.5,143.167 151.5,145.833 151.5,148.5C 148.833,148.5 146.167,148.5 143.5,148.5C 143.5,145.833 143.5,143.167 143.5,140.5C 146.167,140.5 148.833,140.5 151.5,140.5 Z"/></g>
<g><path style="opacity:1" fill="#040404" d="M 160.5,140.5 C 163.167,140.5 165.833,140.5 168.5,140.5C 168.5,143.167 168.5,145.833 168.5,148.5C 168.5,145.833 168.5,143.167 168.5,140.5C 165.833,140.5 163.167,140.5 160.5,140.5 Z"/></g>
<g><path style="opacity:1" fill="#030303" d="M 186.5,140.5 C 186.5,143.167 186.5,145.833 186.5,148.5C 183.833,148.5 181.167,148.5 178.5,148.5C 178.5,145.833 178.5,143.167 178.5,140.5C 181.167,140.5 183.833,140.5 186.5,140.5 Z"/></g>
<g><path style="opacity:1" fill="#dfdfdc" d="M 319.5,139.5 C 328.037,139.201 331.871,143.201 331,151.5C 327.96,157.368 323.46,158.868 317.5,156C 311.744,149.633 312.411,144.133 319.5,139.5 Z"/></g>
<g><path style="opacity:1" fill="#e3e3e0" d="M 276.5,139.5 C 284.491,139.654 287.991,143.654 287,151.5C 284.89,156.945 281.056,158.778 275.5,157C 270.845,154.103 269.345,149.937 271,144.5C 272.406,142.256 274.239,140.59 276.5,139.5 Z"/></g>
<g><path style="opacity:1" fill="#503a29" d="M 253.5,140.5 C 254.568,139.566 255.901,139.232 257.5,139.5C 257.5,145.5 257.5,151.5 257.5,157.5C 255.901,157.768 254.568,157.434 253.5,156.5C 254.5,156.5 255.5,156.5 256.5,156.5C 256.5,151.167 256.5,145.833 256.5,140.5C 255.5,140.5 254.5,140.5 253.5,140.5 Z"/></g>
<g><path style="opacity:1" fill="#0a1d22" d="M 128.5,129.5 C 127.895,132.127 127.395,134.793 127,137.5C 126.333,172.167 126.333,206.833 127,241.5C 127.848,244.56 128.848,247.56 130,250.5C 130.333,250.167 130.667,249.833 131,249.5C 131.5,250.667 132.333,251.5 133.5,252C 133.167,252.333 132.833,252.667 132.5,253C 134.167,253.833 135.833,254.667 137.5,255.5C 139.214,254.391 139.881,255.058 139.5,257.5C 156.167,257.5 172.833,257.5 189.5,257.5C 189.737,258.791 189.404,259.791 188.5,260.5C 171.529,258.678 154.196,257.844 136.5,258C 131.667,255.833 128.167,252.333 126,247.5C 124.352,210.227 124.019,172.893 125,135.5C 125.716,133.121 126.883,131.121 128.5,129.5 Z"/></g>
<g><path style="opacity:1" fill="#626363" d="M 151.5,140.5 C 148.833,140.5 146.167,140.5 143.5,140.5C 143.5,143.167 143.5,145.833 143.5,148.5C 142.523,145.713 142.19,142.713 142.5,139.5C 145.713,139.19 148.713,139.523 151.5,140.5 Z"/></g>
<g><path style="opacity:1" fill="#676767" d="M 160.5,140.5 C 163.287,139.523 166.287,139.19 169.5,139.5C 169.81,142.713 169.477,145.713 168.5,148.5C 168.5,145.833 168.5,143.167 168.5,140.5C 165.833,140.5 163.167,140.5 160.5,140.5 Z"/></g>
<g><path style="opacity:1" fill="#717171" d="M 186.5,140.5 C 183.833,140.5 181.167,140.5 178.5,140.5C 178.5,143.167 178.5,145.833 178.5,148.5C 177.523,145.713 177.19,142.713 177.5,139.5C 180.713,139.19 183.713,139.523 186.5,140.5 Z"/></g>
<g><path style="opacity:1" fill="#bb9070" d="M 253.5,140.5 C 254.5,140.5 255.5,140.5 256.5,140.5C 256.5,145.833 256.5,151.167 256.5,156.5C 255.5,156.5 254.5,156.5 253.5,156.5C 248.809,153.869 247.309,149.869 249,144.5C 250.371,142.959 251.871,141.625 253.5,140.5 Z"/></g>
<g><path style="opacity:1" fill="#b78d6f" d="M 344.5,140.5 C 353.37,141.911 355.537,146.578 351,154.5C 349.266,156.451 347.099,157.451 344.5,157.5C 344.5,151.833 344.5,146.167 344.5,140.5 Z"/></g>
<g><path style="opacity:1" fill="#0e0e0e" d="M 208.5,160.5 C 211.514,161.274 214.181,162.607 216.5,164.5C 210.902,178.127 205.402,191.793 200,205.5C 196.797,206.826 193.964,206.159 191.5,203.5C 196.979,189.059 202.645,174.725 208.5,160.5 Z"/></g>
<g><path style="opacity:0.58" fill="#073138" d="M 356.5,162.5 C 353.355,165.066 349.688,166.566 345.5,167C 344.891,168.948 344.224,170.782 343.5,172.5C 343.244,170.208 343.577,168.041 344.5,166C 348.507,164.702 352.507,163.535 356.5,162.5 Z"/></g>
<g><path style="opacity:1" fill="#0f0f0f" d="M 182.5,167.5 C 185.37,168.528 187.37,170.528 188.5,173.5C 184.728,177.226 180.728,180.726 176.5,184C 180.6,186.467 184.434,189.301 188,192.5C 188.06,195.482 186.726,197.815 184,199.5C 178.57,196.406 173.404,192.906 168.5,189C 164.313,186.6 163.646,183.6 166.5,180C 172.084,176.055 177.417,171.888 182.5,167.5 Z"/></g>
<g><path style="opacity:1" fill="#0d0d0d" d="M 223.5,167.5 C 229.455,170.818 235.122,174.651 240.5,179C 243.458,181.128 244.124,183.794 242.5,187C 236.738,191.295 230.904,195.462 225,199.5C 222.491,198.171 220.658,196.171 219.5,193.5C 223.817,190.514 227.817,187.18 231.5,183.5C 227.576,180.621 223.743,177.621 220,174.5C 220.798,172.139 221.965,169.806 223.5,167.5 Z"/></g>
<g><path style="opacity:1" fill="#e3ad85" d="M 316.5,192.5 C 314.774,192.815 313.107,192.981 311.5,193C 317.42,185.066 321.087,176.232 322.5,166.5C 326.941,165.948 330.941,164.281 334.5,161.5C 335.519,171.069 332.686,179.403 326,186.5C 323.198,189.146 320.032,191.146 316.5,192.5 Z"/></g>
<g><path style="opacity:1" fill="#cda181" d="M 322.5,166.5 C 321.087,176.232 317.42,185.066 311.5,193C 313.107,192.981 314.774,192.815 316.5,192.5C 292.193,201.601 275.36,193.934 266,169.5C 264.332,161.737 266.165,160.237 271.5,165C 282.481,167.843 290.481,164.176 295.5,154C 299.152,153.501 302.818,153.335 306.5,153.5C 308.81,161.471 314.143,165.804 322.5,166.5 Z"/></g>
<g><path style="opacity:1" fill="#2c1c12" d="M 305.5,170.5 C 300.025,171.489 294.358,171.822 288.5,171.5C 288.5,173.833 288.5,176.167 288.5,178.5C 295.167,178.5 301.833,178.5 308.5,178.5C 301.687,179.491 294.687,179.825 287.5,179.5C 287.5,176.5 287.5,173.5 287.5,170.5C 293.5,170.5 299.5,170.5 305.5,170.5 Z"/></g>
<g><path style="opacity:1" fill="#030001" d="M 305.5,170.5 C 308.167,170.5 310.833,170.5 313.5,170.5C 313.5,173.167 313.5,175.833 313.5,178.5C 311.833,178.5 310.167,178.5 308.5,178.5C 301.833,178.5 295.167,178.5 288.5,178.5C 288.5,176.167 288.5,173.833 288.5,171.5C 294.358,171.822 300.025,171.489 305.5,170.5 Z"/></g>
<g><path style="opacity:1" fill="#b88e70" d="M 317.5,214.5 C 317.808,212.076 317.474,209.743 316.5,207.5C 311.466,209.004 306.299,209.67 301,209.5C 295.834,209.687 290.834,209.02 286,207.5C 284.849,211.829 285.682,215.662 288.5,219C 291.561,219.849 294.228,221.349 296.5,223.5C 299.428,224.484 302.428,224.817 305.5,224.5C 296.122,227.238 288.956,224.238 284,215.5C 283.501,211.179 283.334,206.846 283.5,202.5C 288.667,204.332 294,205.332 299.5,205.5C 305.952,205.142 312.285,204.142 318.5,202.5C 318.817,206.702 318.483,210.702 317.5,214.5 Z"/></g>
<g><path style="opacity:1" fill="#cea280" d="M 317.5,214.5 C 315.5,220.175 311.5,223.508 305.5,224.5C 302.428,224.817 299.428,224.484 296.5,223.5C 294.228,221.349 291.561,219.849 288.5,219C 285.682,215.662 284.849,211.829 286,207.5C 290.834,209.02 295.834,209.687 301,209.5C 306.299,209.67 311.466,209.004 316.5,207.5C 317.474,209.743 317.808,212.076 317.5,214.5 Z"/></g>
<g><path style="opacity:1" fill="#0a2129" d="M 329.5,195.5 C 327.268,200.129 326.935,204.963 328.5,210C 340.026,211.519 351.359,213.352 362.5,215.5C 352.592,215.185 342.759,214.185 333,212.5C 331.634,212.706 330.301,213.04 329,213.5C 328.055,213.095 327.388,212.428 327,211.5C 326.333,206.5 326.333,201.5 327,196.5C 327.671,195.748 328.504,195.414 329.5,195.5 Z"/></g>
<g><path style="opacity:1" fill="#dedede" d="M 346.5,222.5 C 354.843,222.945 362.843,224.778 370.5,228C 374.491,230.989 377.324,234.822 379,239.5C 379.5,250.161 379.667,260.828 379.5,271.5C 372.442,271.203 365.442,271.536 358.5,272.5C 357.507,267.88 357.173,263.214 357.5,258.5C 354.5,258.5 351.5,258.5 348.5,258.5C 348.5,264.833 348.5,271.167 348.5,277.5C 342.644,279.092 336.977,281.258 331.5,284C 316.882,286.276 302.215,286.776 287.5,285.5C 310.997,268.005 330.664,247.005 346.5,222.5 Z"/></g>
<g><path style="opacity:1" fill="#e7e8e3" d="M 134.5,236.5 C 161.502,236.333 188.502,236.5 215.5,237C 213.897,240.983 213.23,245.15 213.5,249.5C 188.831,249.667 164.164,249.5 139.5,249C 137.333,248.167 135.833,246.667 135,244.5C 134.503,241.854 134.336,239.187 134.5,236.5 Z"/></g>
<g><path style="opacity:0.862" fill="#062b32" d="M 386.5,234.5 C 387.963,237.203 388.796,240.203 389,243.5C 389.667,268.5 389.667,293.5 389,318.5C 388.79,320.058 388.29,321.391 387.5,322.5C 387.801,293.142 387.468,263.808 386.5,234.5 Z"/></g>
<g><path style="opacity:1" fill="#272726" d="M 198.5,258.5 C 203.167,258.5 207.833,258.5 212.5,258.5C 212.5,264.167 212.5,269.833 212.5,275.5C 206.167,275.5 199.833,275.5 193.5,275.5C 194.706,269.67 196.373,264.003 198.5,258.5 Z"/></g>
<g><path style="opacity:1" fill="#b78c6d" d="M 360.5,280.5 C 366.833,280.5 373.167,280.5 379.5,280.5C 379.5,284.5 379.5,288.5 379.5,292.5C 366.449,292.496 353.449,291.662 340.5,290C 347.348,287.075 354.015,283.908 360.5,280.5 Z"/></g>
<g><path style="opacity:1" fill="#c3c3bf" d="M 175.5,284.5 C 188.167,284.5 200.833,284.5 213.5,284.5C 213.5,287.5 213.5,290.5 213.5,293.5C 200.829,293.667 188.162,293.5 175.5,293C 172.899,290.17 172.899,287.337 175.5,284.5 Z"/></g>
<g><path style="opacity:1" fill="#eaebe7" d="M 176.5,285.5 C 188.5,285.5 200.5,285.5 212.5,285.5C 212.5,287.833 212.5,290.167 212.5,292.5C 200.5,292.5 188.5,292.5 176.5,292.5C 175.918,290.002 175.918,287.669 176.5,285.5 Z"/></g>
<g><path style="opacity:1" fill="#cea280" d="M 239.5,280.5 C 248.915,285.113 258.582,289.279 268.5,293C 278.806,294.247 289.139,295.08 299.5,295.5C 306.653,296.538 313.986,297.204 321.5,297.5C 340.831,298.833 360.164,300.166 379.5,301.5C 379.666,307.509 379.499,313.509 379,319.5C 375.171,326.96 369.004,329.96 360.5,328.5C 355.128,328.405 349.794,327.905 344.5,327C 320.16,321.533 295.826,316.199 271.5,311C 265.167,310.667 258.833,310.333 252.5,310C 248.615,307.275 244.615,304.775 240.5,302.5C 234.69,301.51 228.69,301.177 222.5,301.5C 222.5,294.5 222.5,287.5 222.5,280.5C 228.167,280.5 233.833,280.5 239.5,280.5 Z"/></g>
<g><path style="opacity:1" fill="#31241c" d="M 299.5,295.5 C 306.175,295.334 312.842,295.5 319.5,296C 320.416,296.278 321.082,296.778 321.5,297.5C 313.986,297.204 306.653,296.538 299.5,295.5 Z"/></g>
<g><path style="opacity:0.604" fill="#012b35" d="M 172.5,301.5 C 185.837,301.333 199.171,301.5 212.5,302C 213.04,310.204 214.04,318.371 215.5,326.5C 214.207,325.158 213.374,323.491 213,321.5C 212.812,315.252 212.312,309.085 211.5,303C 198.327,302.831 185.327,302.331 172.5,301.5 Z"/></g>
<g><path style="opacity:1" fill="#735948" d="M 239.5,280.5 C 233.833,280.5 228.167,280.5 222.5,280.5C 222.5,287.5 222.5,294.5 222.5,301.5C 228.69,301.177 234.69,301.51 240.5,302.5C 234.167,302.5 227.833,302.5 221.5,302.5C 221.5,294.833 221.5,287.167 221.5,279.5C 227.69,279.177 233.69,279.51 239.5,280.5 Z"/></g>
<g><path style="opacity:1" fill="#6d5646" d="M 238.5,311.5 C 233.167,311.5 227.833,311.5 222.5,311.5C 222.5,314.167 222.5,316.833 222.5,319.5C 221.523,316.713 221.19,313.713 221.5,310.5C 227.358,310.178 233.025,310.511 238.5,311.5 Z"/></g>
<g><path style="opacity:1" fill="#bc8e6d" d="M 238.5,311.5 C 242.615,313.775 246.615,316.275 250.5,319C 257.833,319.333 265.167,319.667 272.5,320C 274.246,320.471 275.913,321.138 277.5,322C 265.448,324.944 253.281,327.111 241,328.5C 232.369,330.143 226.203,327.143 222.5,319.5C 222.5,316.833 222.5,314.167 222.5,311.5C 227.833,311.5 233.167,311.5 238.5,311.5 Z"/></g>
<g><path style="opacity:1" fill="#d6ddde" d="M 325.5,331.5 C 308.5,332.833 291.5,332.833 274.5,331.5C 282.6,329.566 290.766,327.9 299,326.5C 307.908,327.848 316.741,329.515 325.5,331.5 Z"/></g>
<g><path style="opacity:0.335" fill="#57808a" d="M 274.5,331.5 C 291.5,332.833 308.5,332.833 325.5,331.5C 327.898,331.259 329.898,331.926 331.5,333.5C 310.833,333.5 290.167,333.5 269.5,333.5C 269.5,333.167 269.5,332.833 269.5,332.5C 271.042,331.699 272.708,331.366 274.5,331.5 Z"/></g>
<g><path style="opacity:0.518" fill="#07353f" d="M 333.5,333.5 C 338.607,333.044 343.274,334.044 347.5,336.5C 342.588,336.102 337.921,335.102 333.5,333.5 Z"/></g>
<g><path style="opacity:0.667" fill="#062e37" d="M 269.5,332.5 C 269.5,332.833 269.5,333.167 269.5,333.5C 257.457,337.428 245.123,338.928 232.5,338C 229.896,337.61 227.562,336.776 225.5,335.5C 234.473,336.549 243.473,336.716 252.5,336C 256.816,335.673 260.65,334.173 264,331.5C 265.699,332.406 267.533,332.739 269.5,332.5 Z"/></g>
<g><path style="opacity:0.696" fill="#053440" d="M 375.5,335.5 C 373.852,336.927 371.852,337.76 369.5,338C 366.667,338.167 363.833,338.333 361,338.5C 356.242,338.634 351.742,337.968 347.5,336.5C 356.873,336.752 366.207,336.418 375.5,335.5 Z"/></g>
<g><path style="opacity:1" fill="#d7e9ec" d="M 322.5,364.5 C 322.821,365.817 323.154,367.151 323.5,368.5C 322.469,370.382 321.635,372.382 321,374.5C 320.814,371.964 320.314,369.631 319.5,367.5C 317.833,367.5 316.167,367.5 314.5,367.5C 312.131,367.149 309.797,366.982 307.5,367C 306.289,368.113 306.289,369.28 307.5,370.5C 306.277,371.614 304.944,371.781 303.5,371C 304.833,370 304.833,369 303.5,368C 304.381,367.292 305.047,366.458 305.5,365.5C 306.058,364.21 307.058,363.377 308.5,363C 313.39,362.034 318.057,362.534 322.5,364.5 Z"/></g>
<g><path style="opacity:1" fill="#9fc1c7" d="M 350.5,366.5 C 349.883,366.389 349.383,366.056 349,365.5C 348.015,367.175 347.181,368.842 346.5,370.5C 346.762,369.022 346.429,367.689 345.5,366.5C 343.578,367.711 341.745,369.044 340,370.5C 334.698,378.109 330.198,386.109 326.5,394.5C 326.579,393.07 326.246,391.736 325.5,390.5C 329.918,378.381 336.918,369.215 346.5,363C 344.19,362.503 341.857,362.337 339.5,362.5C 344.548,359.51 348.215,360.843 350.5,366.5 Z"/></g>
<g><path style="opacity:0.298" fill="#5e91a0" d="M 179.5,365.5 C 178.167,365.5 176.833,365.5 175.5,365.5C 175.715,367.179 175.048,368.179 173.5,368.5C 174.234,367.292 174.567,365.959 174.5,364.5C 176.415,364.216 178.081,364.549 179.5,365.5 Z"/></g>
<g><path style="opacity:0.459" fill="#6393a0" d="M 200.5,367.5 C 194.67,366.666 188.67,366.666 182.5,367.5C 188.96,365.545 195.627,365.211 202.5,366.5C 202.043,367.298 201.376,367.631 200.5,367.5 Z"/></g>
<g><path style="opacity:0.753" fill="#7da9b1" d="M 339.5,362.5 C 338.167,364.5 336.5,366.167 334.5,367.5C 335.167,364.833 336.833,363.167 339.5,362.5 Z"/></g>
<g><path style="opacity:1" fill="#a2c6cc" d="M 383.5,375.5 C 383.693,372.692 384.36,370.025 385.5,367.5C 383.435,367.517 381.435,367.85 379.5,368.5C 381.675,365.438 384.509,364.772 388,366.5C 388.667,367.833 388.667,369.167 388,370.5C 386.264,372.063 384.764,373.73 383.5,375.5 Z"/></g>
<g><path style="opacity:1" fill="#bad1d7" d="M 305.5,365.5 C 305.047,366.458 304.381,367.292 303.5,368C 304.833,369 304.833,370 303.5,371C 304.944,371.781 306.277,371.614 307.5,370.5C 306.289,369.28 306.289,368.113 307.5,367C 309.797,366.982 312.131,367.149 314.5,367.5C 308.441,370.225 305.107,374.892 304.5,381.5C 304.002,377.71 302.835,374.044 301,370.5C 300.292,371.381 299.458,372.047 298.5,372.5C 299.833,369.167 302.167,366.833 305.5,365.5 Z"/></g>
<g><path style="opacity:1" fill="#c3dce0" d="M 350.5,366.5 C 353.461,375.755 350.128,380.588 340.5,381C 342.796,377.569 344.796,374.069 346.5,370.5C 347.181,368.842 348.015,367.175 349,365.5C 349.383,366.056 349.883,366.389 350.5,366.5 Z"/></g>
<g><path style="opacity:1" fill="#9cc1c7" d="M 379.5,368.5 C 379.082,369.222 378.416,369.722 377.5,370C 378.022,370.561 378.355,371.228 378.5,372C 377.045,374.248 376.212,376.748 376,379.5C 375.617,378.944 375.117,378.611 374.5,378.5C 375.038,376.883 375.371,375.216 375.5,373.5C 376.833,373.167 376.833,372.833 375.5,372.5C 374.209,372.263 373.209,372.596 372.5,373.5C 369.489,374.561 366.489,375.727 363.5,377C 362.663,378.011 362.33,379.178 362.5,380.5C 361.837,378.958 361.17,377.291 360.5,375.5C 359.583,376.127 358.583,376.461 357.5,376.5C 358.058,375.21 359.058,374.377 360.5,374C 366.7,371.655 373.033,369.822 379.5,368.5 Z"/></g>
<g><path style="opacity:0.863" fill="#6f959e" d="M 256.5,368.5 C 259.017,371.461 259.017,374.461 256.5,377.5C 256.5,374.5 256.5,371.5 256.5,368.5 Z"/></g>
<g><path style="opacity:0.129" fill="#31505c" d="M 372.5,373.5 C 373.209,372.596 374.209,372.263 375.5,372.5C 375.5,372.833 375.5,373.167 375.5,373.5C 374.5,374.833 373.5,374.833 372.5,373.5 Z"/></g>
<g><path style="opacity:1" fill="#abcbd0" d="M 322.5,364.5 C 326.304,367.828 326.471,371.494 323,375.5C 320.603,378.4 317.77,380.733 314.5,382.5C 314.169,379.463 315.336,376.797 318,374.5C 318.977,372.26 319.477,369.927 319.5,367.5C 320.314,369.631 320.814,371.964 321,374.5C 321.635,372.382 322.469,370.382 323.5,368.5C 323.154,367.151 322.821,365.817 322.5,364.5 Z"/></g>
<g><path style="opacity:1" fill="#cde1e4" d="M 222.5,379.5 C 220.952,379.179 220.285,378.179 220.5,376.5C 220.66,374.801 220.494,373.134 220,371.5C 215.49,377.521 212.323,384.187 210.5,391.5C 209.833,392.167 209.167,392.833 208.5,393.5C 208.041,385.161 207.207,384.827 206,392.5C 205.722,391.584 205.222,390.918 204.5,390.5C 204.5,389.833 204.5,389.167 204.5,388.5C 206.656,380.847 210.323,374.014 215.5,368C 220.754,366.193 224.088,367.859 225.5,373C 224.961,375.482 223.961,377.648 222.5,379.5 Z"/></g>
<g><path style="opacity:1" fill="#e9fafc" d="M 362.5,380.5 C 362.511,382.017 363.177,383.184 364.5,384C 363.552,384.483 362.552,384.649 361.5,384.5C 360.5,384.167 359.833,383.5 359.5,382.5C 357.919,380.858 357.253,378.858 357.5,376.5C 358.583,376.461 359.583,376.127 360.5,375.5C 361.17,377.291 361.837,378.958 362.5,380.5 Z"/></g>
<g><path style="opacity:0.741" fill="#6c9fa7" d="M 357.5,376.5 C 357.253,378.858 357.919,380.858 359.5,382.5C 357.299,382.142 355.965,380.808 355.5,378.5C 355.855,377.478 356.522,376.811 357.5,376.5 Z"/></g>
<g><path style="opacity:1" fill="#bad5da" d="M 261.5,376.5 C 264.244,376.2 265.911,377.367 266.5,380C 265.714,384.511 263.381,388.011 259.5,390.5C 258.119,390 257.453,389 257.5,387.5C 259.579,384.108 260.912,380.442 261.5,376.5 Z"/></g>
<g><path style="opacity:1" fill="#a2c4cd" d="M 220.5,376.5 C 220.285,378.179 220.952,379.179 222.5,379.5C 218.934,386.064 214.601,392.064 209.5,397.5C 209.167,396.167 208.833,394.833 208.5,393.5C 209.167,392.833 209.833,392.167 210.5,391.5C 214.081,386.672 217.415,381.672 220.5,376.5 Z"/></g>
<g><path style="opacity:0.898" fill="#adcdd3" d="M 169.5,382.5 C 171.218,388.797 168.885,392.964 162.5,395C 163.056,395.383 163.389,395.883 163.5,396.5C 162.508,396.672 161.842,396.338 161.5,395.5C 161.557,394.391 161.89,393.391 162.5,392.5C 163.822,392.67 164.989,392.337 166,391.5C 166.9,388.282 168.067,385.282 169.5,382.5 Z"/></g>
<g><path style="opacity:0.286" fill="#427f8c" d="M 362.5,380.5 C 364.727,381.401 365.727,383.067 365.5,385.5C 363.901,385.768 362.568,385.434 361.5,384.5C 362.552,384.649 363.552,384.483 364.5,384C 363.177,383.184 362.511,382.017 362.5,380.5 Z"/></g>
<g><path style="opacity:1" fill="#cae0e4" d="M 143.5,387.5 C 142.833,387.5 142.5,387.833 142.5,388.5C 141.957,388.56 141.624,388.893 141.5,389.5C 143.636,390.793 145.636,390.793 147.5,389.5C 148.203,385.422 150.37,382.422 154,380.5C 156.473,381.74 156.973,383.407 155.5,385.5C 154.094,385.973 153.427,386.973 153.5,388.5C 153.167,388.5 152.833,388.5 152.5,388.5C 151.733,389.172 151.066,390.005 150.5,391C 152.134,391.494 153.801,391.66 155.5,391.5C 155.167,392.167 154.833,392.833 154.5,393.5C 152.302,393.12 150.635,393.787 149.5,395.5C 148.711,395.783 148.044,396.283 147.5,397C 150.032,397.619 152.365,398.619 154.5,400C 151.381,401.405 148.048,401.905 144.5,401.5C 142.876,401.36 141.71,402.027 141,403.5C 139.991,402.342 138.658,401.675 137,401.5C 135.615,401.514 134.449,401.848 133.5,402.5C 133.167,403.5 132.5,404.167 131.5,404.5C 130.348,405.625 129.348,405.625 128.5,404.5C 128.5,404.167 128.5,403.833 128.5,403.5C 129.043,403.44 129.376,403.107 129.5,402.5C 128.833,401.5 128.167,400.5 127.5,399.5C 129.291,398.83 130.958,398.163 132.5,397.5C 132.649,396.448 132.483,395.448 132,394.5C 129.05,395.232 127.55,393.899 127.5,390.5C 130.249,390.726 132.916,390.393 135.5,389.5C 137.453,385.88 140.119,382.88 143.5,380.5C 144.72,380.887 145.387,381.72 145.5,383C 144.586,384.406 143.92,385.906 143.5,387.5 Z M 139.5,394.5 C 144.456,394.404 144.623,395.404 140,397.5C 136.993,397.001 136.826,396.001 139.5,394.5 Z"/></g>
<g><path style="opacity:0.039" fill="#0a5e80" d="M 143.5,387.5 C 144.575,386.438 145.575,386.438 146.5,387.5C 145.386,388.776 144.386,388.776 143.5,387.5 Z"/></g>
<g><path style="opacity:0.024" fill="#104562" d="M 155.5,385.5 C 156.434,386.568 156.768,387.901 156.5,389.5C 155.209,389.737 154.209,389.404 153.5,388.5C 154.906,388.027 155.573,387.027 155.5,385.5 Z"/></g>
<g><path style="opacity:0.235" fill="#487480" d="M 142.5,388.5 C 143.919,389.451 145.585,389.784 147.5,389.5C 145.636,390.793 143.636,390.793 141.5,389.5C 141.624,388.893 141.957,388.56 142.5,388.5 Z"/></g>
<g><path style="opacity:1" fill="#eef7f7" d="M 339.5,362.5 C 341.857,362.337 344.19,362.503 346.5,363C 336.918,369.215 329.918,378.381 325.5,390.5C 326.246,391.736 326.579,393.07 326.5,394.5C 326.5,394.833 326.5,395.167 326.5,395.5C 324.733,397.792 323.733,400.458 323.5,403.5C 323.795,405.735 323.461,407.735 322.5,409.5C 321.686,411.631 321.186,413.964 321,416.5C 320.329,415.748 319.496,415.414 318.5,415.5C 317.662,415.158 317.328,414.492 317.5,413.5C 317.5,409.167 317.5,404.833 317.5,400.5C 317.5,400.167 317.5,399.833 317.5,399.5C 319.642,396.2 320.975,392.533 321.5,388.5C 322.092,385.309 323.259,382.309 325,379.5C 327.65,375.025 330.817,371.025 334.5,367.5C 336.5,366.167 338.167,364.5 339.5,362.5 Z"/></g>
<g><path style="opacity:0.231" fill="#4f7384" d="M 152.5,388.5 C 153.1,389.9 154.1,390.9 155.5,391.5C 153.801,391.66 152.134,391.494 150.5,391C 151.066,390.005 151.733,389.172 152.5,388.5 Z"/></g>
<g><path style="opacity:0.137" fill="#30666c" d="M 174.5,386.5 C 174.738,388.404 175.738,389.738 177.5,390.5C 177.5,390.833 177.5,391.167 177.5,391.5C 175.712,391.785 174.045,391.452 172.5,390.5C 172.624,389.893 172.957,389.56 173.5,389.5C 173.263,388.209 173.596,387.209 174.5,386.5 Z"/></g>
<g><path style="opacity:1" fill="#87bac8" d="M 187.5,391.5 C 185.958,392.301 184.292,392.634 182.5,392.5C 181.081,391.549 179.415,391.216 177.5,391.5C 177.5,391.167 177.5,390.833 177.5,390.5C 180.038,390.493 182.538,390.159 185,389.5C 186.376,389.684 187.209,390.351 187.5,391.5 Z"/></g>
<g><path style="opacity:1" fill="#e0eef0" d="M 274.5,387.5 C 276.176,388.183 276.843,389.517 276.5,391.5C 276.5,392.5 276.5,393.5 276.5,394.5C 275.5,394.833 274.833,395.5 274.5,396.5C 272.534,397.255 272.2,398.421 273.5,400C 271.808,401.401 271.141,403.234 271.5,405.5C 270.527,407.948 270.194,410.615 270.5,413.5C 272.415,413.216 274.081,413.549 275.5,414.5C 273.989,416.441 271.989,416.941 269.5,416C 267.249,415.252 265.916,413.752 265.5,411.5C 266.342,408.502 266.842,405.502 267,402.5C 265.331,403.846 264.164,405.513 263.5,407.5C 259.942,411.462 256.609,411.129 253.5,406.5C 252.267,402.905 252.934,399.572 255.5,396.5C 256.591,395.112 257.924,394.612 259.5,395C 258.577,397.041 258.244,399.208 258.5,401.5C 257.212,403.035 257.212,404.701 258.5,406.5C 259.107,406.376 259.44,406.043 259.5,405.5C 264.525,401.155 268.358,395.822 271,389.5C 271.816,388.177 272.983,387.511 274.5,387.5 Z"/></g>
<g><path style="opacity:1" fill="#9dc0c7" d="M 304.5,382.5 C 306.208,385.95 307.541,389.617 308.5,393.5C 307.542,393.047 306.708,392.381 306,391.5C 305.304,388.522 304.804,385.522 304.5,382.5 Z"/></g>
<g><path style="opacity:0.02" fill="#0c4e4e" d="M 191.5,392.5 C 190.833,392.5 190.5,392.833 190.5,393.5C 188.973,393.573 187.973,392.906 187.5,391.5C 189.137,390.782 190.803,390.616 192.5,391C 191.944,391.383 191.611,391.883 191.5,392.5 Z"/></g>
<g><path style="opacity:1" fill="#edf6f8" d="M 246.5,381.5 C 244.716,382.574 243.549,384.24 243,386.5C 242.73,389.224 242.23,391.891 241.5,394.5C 241.709,395.086 242.043,395.586 242.5,396C 240.893,397.049 240.227,398.549 240.5,400.5C 240.425,403.206 240.092,405.873 239.5,408.5C 238.527,410.948 238.194,413.615 238.5,416.5C 238.265,417.097 237.765,417.43 237,417.5C 235.779,416.728 234.779,415.728 234,414.5C 233.933,411.953 233.099,409.786 231.5,408C 233.037,406.89 233.703,405.39 233.5,403.5C 233.5,403.167 233.5,402.833 233.5,402.5C 234.811,400.44 234.811,398.274 233.5,396C 234.448,395.517 235.448,395.351 236.5,395.5C 236.993,393.194 237.326,390.861 237.5,388.5C 238.314,384.884 239.648,381.551 241.5,378.5C 245.352,374.287 247.018,375.287 246.5,381.5 Z"/></g>
<g><path style="opacity:1" fill="#afcdd2" d="M 256.5,368.5 C 256.5,371.5 256.5,374.5 256.5,377.5C 251.939,385.724 246.605,393.39 240.5,400.5C 240.227,398.549 240.893,397.049 242.5,396C 242.043,395.586 241.709,395.086 241.5,394.5C 242.23,391.891 242.73,389.224 243,386.5C 243.549,384.24 244.716,382.574 246.5,381.5C 247.018,375.287 245.352,374.287 241.5,378.5C 243.546,370.045 248.546,366.711 256.5,368.5 Z M 244.5,389.5 C 245.167,386.833 245.833,384.167 246.5,381.5C 248.394,378.061 250.56,374.728 253,371.5C 252.6,378.633 249.767,384.633 244.5,389.5 Z"/></g>
<g><path style="opacity:1" fill="#88b5be" d="M 321.5,388.5 C 320.975,392.533 319.642,396.2 317.5,399.5C 318.065,395.463 319.399,391.797 321.5,388.5 Z"/></g>
<g><path style="opacity:1" fill="#b3cfd1" d="M 380.5,381.5 C 377.809,388.586 375.142,395.586 372.5,402.5C 372.712,398.985 372.712,395.652 372.5,392.5C 373.836,389.49 375.169,386.49 376.5,383.5C 377.622,382.37 378.956,381.703 380.5,381.5 Z"/></g>
<g><path style="opacity:0.012" fill="#193c49" d="M 155.5,391.5 C 157.935,392.13 158.602,393.463 157.5,395.5C 156.735,394.388 155.735,393.721 154.5,393.5C 154.833,392.833 155.167,392.167 155.5,391.5 Z"/></g>
<g><path style="opacity:0.176" fill="#2f7284" d="M 162.5,392.5 C 161.89,393.391 161.557,394.391 161.5,395.5C 160.115,394.053 160.448,393.053 162.5,392.5 Z"/></g>
<g><path style="opacity:0.988" fill="#96bdc4" d="M 237.5,388.5 C 237.326,390.861 236.993,393.194 236.5,395.5C 235.448,395.351 234.448,395.517 233.5,396C 234.811,398.274 234.811,400.44 233.5,402.5C 233.66,400.801 233.494,399.134 233,397.5C 232.583,396.244 231.75,395.577 230.5,395.5C 230.804,394.85 231.137,394.183 231.5,393.5C 229.955,392.548 228.288,392.215 226.5,392.5C 226.866,391.305 227.699,390.639 229,390.5C 231.499,391.083 233.499,392.416 235,394.5C 235.566,392.277 236.4,390.277 237.5,388.5 Z"/></g>
<g><path style="opacity:0.035" fill="#045f78" d="M 149.5,395.5 C 150.552,395.351 151.552,395.517 152.5,396C 151.251,396.74 150.251,396.573 149.5,395.5 Z"/></g>
<g><path style="opacity:1" fill="#ecf5f7" d="M 208.5,393.5 C 208.833,394.833 209.167,396.167 209.5,397.5C 208.192,400.73 207.192,404.064 206.5,407.5C 205.842,408.793 205.508,410.293 205.5,412C 205.569,413.986 206.235,415.486 207.5,416.5C 207.5,417.5 207.5,418.5 207.5,419.5C 204.187,422.508 201.853,421.842 200.5,417.5C 201.011,413.97 200.344,410.804 198.5,408C 199.333,407.167 200.167,406.333 201,405.5C 201.219,400.232 202.385,395.232 204.5,390.5C 205.222,390.918 205.722,391.584 206,392.5C 207.207,384.827 208.041,385.161 208.5,393.5 Z"/></g>
<g><path style="opacity:1" fill="#edf6f7" d="M 383.5,375.5 C 383.008,377.819 382.008,379.819 380.5,381.5C 378.956,381.703 377.622,382.37 376.5,383.5C 375.169,386.49 373.836,389.49 372.5,392.5C 372.712,395.652 372.712,398.985 372.5,402.5C 369.991,405.455 367.824,408.788 366,412.5C 364.625,410.063 364.125,407.397 364.5,404.5C 367.32,395.544 370.654,386.878 374.5,378.5C 375.117,378.611 375.617,378.944 376,379.5C 376.212,376.748 377.045,374.248 378.5,372C 378.355,371.228 378.022,370.561 377.5,370C 378.416,369.722 379.082,369.222 379.5,368.5C 381.435,367.85 383.435,367.517 385.5,367.5C 384.36,370.025 383.693,372.692 383.5,375.5 Z"/></g>
<g><path style="opacity:0.663" fill="#648591" d="M 221.5,397.5 C 221.573,399.027 220.906,400.027 219.5,400.5C 219.427,398.973 220.094,397.973 221.5,397.5 Z"/></g>
<g><path style="opacity:1" fill="#a7c6cb" d="M 271.5,405.5 C 271.141,403.234 271.808,401.401 273.5,400C 272.2,398.421 272.534,397.255 274.5,396.5C 274.435,396.938 274.601,397.272 275,397.5C 276.039,396.756 276.539,395.756 276.5,394.5C 278.344,393.796 278.844,392.463 278,390.5C 277.617,391.056 277.117,391.389 276.5,391.5C 276.843,389.517 276.176,388.183 274.5,387.5C 277.003,384.962 279.67,384.962 282.5,387.5C 284.919,390.499 284.753,393.499 282,396.5C 278.244,399.422 274.744,402.422 271.5,405.5 Z"/></g>
<g><path style="opacity:0.412" fill="#587f87" d="M 326.5,395.5 C 326.267,398.542 325.267,401.208 323.5,403.5C 323.733,400.458 324.733,397.792 326.5,395.5 Z"/></g>
<g><path style="opacity:1" fill="#78a9b2" d="M 132.5,397.5 C 130.958,398.163 129.291,398.83 127.5,399.5C 128.167,400.5 128.833,401.5 129.5,402.5C 129.376,403.107 129.043,403.44 128.5,403.5C 124.132,398.487 125.466,396.487 132.5,397.5 Z"/></g>
<g><path style="opacity:1" fill="#d5e6e8" d="M 198.5,391.5 C 198.414,392.496 198.748,393.329 199.5,394C 198.584,394.278 197.918,394.778 197.5,395.5C 194.516,400.452 192.516,405.785 191.5,411.5C 191.5,412.5 191.5,413.5 191.5,414.5C 190.5,414.5 189.5,414.5 188.5,414.5C 186.069,413.393 185.069,411.393 185.5,408.5C 186.405,403.198 188.072,398.198 190.5,393.5C 191.167,393.5 191.5,393.167 191.5,392.5C 193.094,392.08 194.594,391.414 196,390.5C 196.902,390.743 197.735,391.077 198.5,391.5 Z"/></g>
<g><path style="opacity:1" fill="#a3c6cc" d="M 291.5,406.5 C 291.585,405.005 290.919,404.005 289.5,403.5C 285.997,408.345 285.663,413.345 288.5,418.5C 286.589,418.426 285.422,417.426 285,415.5C 284.322,411.779 284.489,408.112 285.5,404.5C 286.167,404.5 286.5,404.167 286.5,403.5C 287.906,403.027 288.573,402.027 288.5,400.5C 289.167,400.5 289.5,400.167 289.5,399.5C 291.117,398.962 292.784,398.629 294.5,398.5C 294.38,401.578 293.38,404.245 291.5,406.5 Z"/></g>
<g><path style="opacity:0.133" fill="#296575" d="M 348.5,395.5 C 348.5,399.5 348.5,403.5 348.5,407.5C 347.71,406.391 347.21,405.058 347,403.5C 346.623,404.942 345.79,405.942 344.5,406.5C 345.092,403.873 345.425,401.206 345.5,398.5C 346.268,399.263 346.768,400.263 347,401.5C 347.191,399.292 347.691,397.292 348.5,395.5 Z"/></g>
<g><path style="opacity:0.991" fill="#81adb4" d="M 133.5,402.5 C 134.449,401.848 135.615,401.514 137,401.5C 138.658,401.675 139.991,402.342 141,403.5C 141.71,402.027 142.876,401.36 144.5,401.5C 142.825,406.168 139.825,409.501 135.5,411.5C 136.398,408.534 137.731,405.7 139.5,403C 137.527,402.505 135.527,402.338 133.5,402.5 Z"/></g>
<g><path style="opacity:0.067" fill="#446f7d" d="M 258.5,401.5 C 258.232,403.099 258.566,404.432 259.5,405.5C 259.44,406.043 259.107,406.376 258.5,406.5C 257.212,404.701 257.212,403.035 258.5,401.5 Z"/></g>
<g><path style="opacity:0.02" fill="#0b5457" d="M 131.5,405.5 C 136.217,405.418 136.383,406.752 132,409.5C 131.517,408.552 131.351,407.552 131.5,406.5C 131.5,406.167 131.5,405.833 131.5,405.5 Z"/></g>
<g><path style="opacity:1" fill="#d3e6e9" d="M 226.5,392.5 C 228.288,392.215 229.955,392.548 231.5,393.5C 231.137,394.183 230.804,394.85 230.5,395.5C 227.825,400.022 225.825,404.855 224.5,410C 224.85,411.257 225.517,411.591 226.5,411C 229.067,408.604 231.4,406.104 233.5,403.5C 233.703,405.39 233.037,406.89 231.5,408C 233.099,409.786 233.933,411.953 234,414.5C 234.779,415.728 235.779,416.728 237,417.5C 237.765,417.43 238.265,417.097 238.5,416.5C 239.167,416.5 239.833,416.5 240.5,416.5C 240.5,417.5 240.5,418.5 240.5,419.5C 238.368,422.037 236.201,422.037 234,419.5C 232.847,416.289 232.18,412.956 232,409.5C 229.834,412.507 227.001,414.507 223.5,415.5C 221.347,415.439 220.014,414.439 219.5,412.5C 219.768,408.917 219.101,405.584 217.5,402.5C 217.833,401.5 218.5,400.833 219.5,400.5C 220.906,400.027 221.573,399.027 221.5,397.5C 222.882,395.451 224.548,393.785 226.5,392.5 Z"/></g>
<g><path style="opacity:0.318" fill="#6d989f" d="M 265.5,411.5 C 264.833,410.167 264.167,408.833 263.5,407.5C 264.164,405.513 265.331,403.846 267,402.5C 266.842,405.502 266.342,408.502 265.5,411.5 Z"/></g>
<g><path style="opacity:0.796" fill="#a0c5cc" d="M 258.5,401.5 C 258.244,399.208 258.577,397.041 259.5,395C 257.924,394.612 256.591,395.112 255.5,396.5C 252.934,399.572 252.267,402.905 253.5,406.5C 252.883,406.389 252.383,406.056 252,405.5C 248.387,410.421 244.554,415.088 240.5,419.5C 240.5,418.5 240.5,417.5 240.5,416.5C 240.5,416.167 240.5,415.833 240.5,415.5C 246.206,407.922 251.539,400.088 256.5,392C 259.038,391.133 261.038,391.799 262.5,394C 261.003,396.498 259.67,398.998 258.5,401.5 Z"/></g>
<g><path style="opacity:0.949" fill="#83b1c2" d="M 317.5,400.5 C 317.5,404.833 317.5,409.167 317.5,413.5C 316.335,412.504 315.668,411.171 315.5,409.5C 315.991,406.326 316.657,403.326 317.5,400.5 Z"/></g>
<g><path style="opacity:0.808" fill="#7eb3c1" d="M 128.5,404.5 C 129.348,405.625 130.348,405.625 131.5,404.5C 131.5,404.833 131.5,405.167 131.5,405.5C 131.5,405.833 131.5,406.167 131.5,406.5C 129.612,407.94 127.945,409.606 126.5,411.5C 125.659,408.821 126.325,406.488 128.5,404.5 Z"/></g>
<g><path style="opacity:1" fill="#9dc2c9" d="M 204.5,388.5 C 204.5,389.167 204.5,389.833 204.5,390.5C 202.385,395.232 201.219,400.232 201,405.5C 200.167,406.333 199.333,407.167 198.5,408C 200.344,410.804 201.011,413.97 200.5,417.5C 199.984,415.282 198.984,413.282 197.5,411.5C 195.972,412.861 194.305,414.028 192.5,415C 190.934,415.765 189.601,415.598 188.5,414.5C 189.5,414.5 190.5,414.5 191.5,414.5C 191.5,413.5 191.5,412.5 191.5,411.5C 197.903,408.943 200.737,404.276 200,397.5C 199.583,396.244 198.75,395.577 197.5,395.5C 197.918,394.778 198.584,394.278 199.5,394C 198.748,393.329 198.414,392.496 198.5,391.5C 199.794,392.29 200.961,393.29 202,394.5C 202.566,392.277 203.4,390.277 204.5,388.5 Z"/></g>
<g><path style="opacity:1" fill="#cfe3e7" d="M 345.5,398.5 C 345.425,401.206 345.092,403.873 344.5,406.5C 342.226,412.289 338.56,417.122 333.5,421C 330.261,423.107 327.261,422.94 324.5,420.5C 324.196,419.85 323.863,419.183 323.5,418.5C 324.949,417.828 326.282,417.161 327.5,416.5C 329.907,415.288 332.24,413.788 334.5,412C 338.305,407.522 341.972,403.022 345.5,398.5 Z"/></g>
<g><path style="opacity:1" fill="#c2dce1" d="M 359.5,415.5 C 360.93,411.646 362.597,407.979 364.5,404.5C 364.125,407.397 364.625,410.063 366,412.5C 367.824,408.788 369.991,405.455 372.5,402.5C 370.481,409.538 367.148,415.871 362.5,421.5C 353.058,422.061 348.392,417.394 348.5,407.5C 348.5,403.5 348.5,399.5 348.5,395.5C 348.435,395.062 348.601,394.728 349,394.5C 349.915,395.328 350.581,396.328 351,397.5C 351.375,403.789 352.875,409.789 355.5,415.5C 356.808,416.626 358.142,416.626 359.5,415.5 Z"/></g>
<g><path style="opacity:0.106" fill="#466e76" d="M 239.5,408.5 C 239.198,411.059 239.532,413.393 240.5,415.5C 240.5,415.833 240.5,416.167 240.5,416.5C 239.833,416.5 239.167,416.5 238.5,416.5C 238.194,413.615 238.527,410.948 239.5,408.5 Z"/></g>
<g><path style="opacity:1" fill="#9cc1c6" d="M 289.5,399.5 C 288.833,399.5 288.5,399.833 288.5,400.5C 287.094,400.973 286.427,401.973 286.5,403.5C 285.833,403.5 285.5,403.833 285.5,404.5C 283.197,406.978 281.031,409.645 279,412.5C 278.184,413.823 277.017,414.489 275.5,414.5C 274.081,413.549 272.415,413.216 270.5,413.5C 270.194,410.615 270.527,407.948 271.5,405.5C 271.337,407.857 271.503,410.19 272,412.5C 277.959,407.751 283.126,402.251 287.5,396C 290.332,395.826 290.999,396.993 289.5,399.5 Z"/></g>
<g><path style="opacity:0.027" fill="#48757c" d="M 206.5,407.5 C 206.194,410.385 206.527,413.052 207.5,415.5C 207.5,415.833 207.5,416.167 207.5,416.5C 206.235,415.486 205.569,413.986 205.5,412C 205.508,410.293 205.842,408.793 206.5,407.5 Z"/></g>
<g><path style="opacity:1" fill="#99c1c9" d="M 217.5,402.5 C 219.101,405.584 219.768,408.917 219.5,412.5C 218.691,410.708 218.191,408.708 218,406.5C 215.015,411.311 211.515,415.644 207.5,419.5C 207.5,418.5 207.5,417.5 207.5,416.5C 207.5,416.167 207.5,415.833 207.5,415.5C 210.603,410.948 213.936,406.614 217.5,402.5 Z"/></g>
<g><path style="opacity:1" fill="#b8d8dd" d="M 322.5,409.5 C 322.017,413.577 323.684,415.91 327.5,416.5C 326.282,417.161 324.949,417.828 323.5,418.5C 323.863,419.183 324.196,419.85 324.5,420.5C 321.911,419.581 319.911,417.914 318.5,415.5C 319.496,415.414 320.329,415.748 321,416.5C 321.186,413.964 321.686,411.631 322.5,409.5 Z"/></g>
<g><path style="opacity:1" fill="#fafdfc" d="M 359.5,415.5 C 361.143,415.52 362.476,414.853 363.5,413.5C 363.833,413.833 364.167,414.167 364.5,414.5C 363.253,416.323 362.586,418.323 362.5,420.5C 360.396,420.799 358.396,420.466 356.5,419.5C 357.826,418.358 358.826,417.024 359.5,415.5 Z"/></g>
<g><path style="opacity:1" fill="#e2eff1" d="M 304.5,381.5 C 304.5,381.833 304.5,382.167 304.5,382.5C 304.804,385.522 305.304,388.522 306,391.5C 306.708,392.381 307.542,393.047 308.5,393.5C 314.056,401.142 313.723,408.475 307.5,415.5C 302.078,417.8 296.411,419.133 290.5,419.5C 289.508,419.672 288.842,419.338 288.5,418.5C 285.663,413.345 285.997,408.345 289.5,403.5C 290.919,404.005 291.585,405.005 291.5,406.5C 290.593,416.153 294.26,418.153 302.5,412.5C 304.975,411.313 305.975,409.313 305.5,406.5C 302.681,398.188 299.848,389.855 297,381.5C 296.207,378.259 296.707,375.259 298.5,372.5C 299.458,372.047 300.292,371.381 301,370.5C 302.835,374.044 304.002,377.71 304.5,381.5 Z"/></g>
<g><path style="opacity:0.741" fill="#80a6b2" d="M 305.5,406.5 C 305.975,409.313 304.975,411.313 302.5,412.5C 303.508,410.456 304.508,408.456 305.5,406.5 Z"/></g>
<g><path style="opacity:1" fill="#94b9c1" d="M 307.5,415.5 C 302.549,420.155 296.882,421.488 290.5,419.5C 296.411,419.133 302.078,417.8 307.5,415.5 Z"/></g>
<g><path style="opacity:1" fill="#d5e7e9" d="M 179.5,365.5 C 180.5,366.167 181.5,366.833 182.5,367.5C 188.67,366.666 194.67,366.666 200.5,367.5C 194.122,369.931 187.456,371.764 180.5,373C 178.357,377.452 176.357,381.952 174.5,386.5C 173.596,387.209 173.263,388.209 173.5,389.5C 172.957,389.56 172.624,389.893 172.5,390.5C 174.045,391.452 175.712,391.785 177.5,391.5C 179.415,391.216 181.081,391.549 182.5,392.5C 179.587,393.928 176.421,394.928 173,395.5C 172.055,395.905 171.388,396.572 171,397.5C 169.112,403.608 166.945,409.608 164.5,415.5C 164.833,415.833 165.167,416.167 165.5,416.5C 169.66,414.588 173.66,412.421 177.5,410C 178.944,409.219 180.277,409.386 181.5,410.5C 178.032,415.31 173.699,418.977 168.5,421.5C 165.833,421.5 163.167,421.5 160.5,421.5C 158.328,420.339 156.994,418.505 156.5,416C 158.939,409.515 161.272,403.015 163.5,396.5C 163.389,395.883 163.056,395.383 162.5,395C 168.885,392.964 171.218,388.797 169.5,382.5C 169.756,380.063 170.423,377.729 171.5,375.5C 167.684,374.571 166.35,372.405 167.5,369C 169.473,368.505 171.473,368.338 173.5,368.5C 175.048,368.179 175.715,367.179 175.5,365.5C 176.833,365.5 178.167,365.5 179.5,365.5 Z"/></g>
<g><path style="opacity:0.831" fill="#739da6" d="M 160.5,421.5 C 163.167,421.5 165.833,421.5 168.5,421.5C 165.833,424.167 163.167,424.167 160.5,421.5 Z"/></g>
<g><path style="opacity:0.859" fill="#71b0bf" d="M 207.5,436.5 C 209.604,436.201 211.604,436.534 213.5,437.5C 212.044,440.286 211.044,443.286 210.5,446.5C 209.865,442.977 208.865,439.644 207.5,436.5 Z"/></g>
<g><path style="opacity:0.776" fill="#71aebf" d="M 236.5,436.5 C 243.865,436.653 245.865,439.82 242.5,446C 240.527,446.495 238.527,446.662 236.5,446.5C 236.5,443.167 236.5,439.833 236.5,436.5 Z M 238.5,439.5 C 242.161,439.35 243.161,440.85 241.5,444C 240.552,444.483 239.552,444.649 238.5,444.5C 238.5,442.833 238.5,441.167 238.5,439.5 Z"/></g>
<g><path style="opacity:0.733" fill="#69a2b5" d="M 263.5,441.5 C 262.108,443.273 260.941,445.273 260,447.5C 257.216,444.283 255.882,440.616 256,436.5C 257.698,438.266 259.031,440.266 260,442.5C 260.412,440.003 261.578,438.003 263.5,436.5C 264.052,438.003 264.052,439.669 263.5,441.5 Z"/></g>
<g><path style="opacity:0.561" fill="#6ca6b6" d="M 294.5,436.5 C 299.355,435.964 301.521,437.964 301,442.5C 299.644,443.38 298.144,443.714 296.5,443.5C 296.719,444.675 296.386,445.675 295.5,446.5C 294.513,443.232 294.18,439.898 294.5,436.5 Z M 296.5,439.5 C 299.797,439.329 300.131,439.995 297.5,441.5C 296.702,441.043 296.369,440.376 296.5,439.5 Z"/></g>
<g><path style="opacity:0.675" fill="#72adbb" d="M 224.5,436.5 C 226.378,439.245 228.045,442.245 229.5,445.5C 229.167,445.833 228.833,446.167 228.5,446.5C 226.167,443.833 223.833,443.833 221.5,446.5C 221.615,443.132 222.615,439.799 224.5,436.5 Z"/></g>
<g><path style="opacity:0.09" fill="#2c6674" d="M 253.5,438.5 C 252.391,439.29 251.058,439.79 249.5,440C 250.737,440.232 251.737,440.732 252.5,441.5C 251.167,441.5 249.833,441.5 248.5,441.5C 248.5,440.5 248.5,439.5 248.5,438.5C 250.167,438.5 251.833,438.5 253.5,438.5 Z"/></g>
<g><path style="opacity:0.537" fill="#609ba7" d="M 303.5,436.5 C 305.527,436.338 307.527,436.505 309.5,437C 309.957,437.414 310.291,437.914 310.5,438.5C 308.922,439.298 307.256,439.798 305.5,440C 306.793,440.49 308.127,440.657 309.5,440.5C 309.5,441.5 309.5,442.5 309.5,443.5C 308.127,443.343 306.793,443.51 305.5,444C 307.384,444.216 309.051,444.883 310.5,446C 308.19,446.497 305.857,446.663 303.5,446.5C 303.5,443.167 303.5,439.833 303.5,436.5 Z"/></g>
<g><path style="opacity:0.784" fill="#6ea8b6" d="M 312.5,436.5 C 318.792,436.081 320.458,438.414 317.5,443.5C 317.977,444.478 318.643,445.311 319.5,446C 317.633,446.711 316.133,446.211 315,444.5C 314.692,445.308 314.192,445.975 313.5,446.5C 312.513,443.232 312.18,439.898 312.5,436.5 Z M 314.5,439.5 C 317.797,439.329 318.131,439.995 315.5,441.5C 314.702,441.043 314.369,440.376 314.5,439.5 Z"/></g>
<g><path style="opacity:0.704" fill="#6cabbd" d="M 184.5,436.5 C 185.117,436.611 185.617,436.944 186,437.5C 186.667,440.167 186.667,442.833 186,445.5C 184.388,448.079 182.888,448.079 181.5,445.5C 182.325,444.614 183.325,444.281 184.5,444.5C 184.5,441.833 184.5,439.167 184.5,436.5 Z"/></g>
<g><path style="opacity:0.008" fill="#125e5e" d="M 263.5,441.5 C 264.573,442.251 264.74,443.251 264,444.5C 263.517,443.552 263.351,442.552 263.5,441.5 Z"/></g>
<g><path style="opacity:0.8" fill="#96cadb" d="M 253.5,438.5 C 251.833,438.5 250.167,438.5 248.5,438.5C 248.5,439.5 248.5,440.5 248.5,441.5C 249.833,441.5 251.167,441.5 252.5,441.5C 253.833,441.833 253.833,442.167 252.5,442.5C 250.549,442.227 249.049,442.893 248,444.5C 247.503,442.19 247.337,439.857 247.5,437.5C 248.097,436.861 248.93,436.528 250,436.5C 251.699,436.387 252.866,437.053 253.5,438.5 Z"/></g>
<g><path style="opacity:0.447" fill="#6ba3b7" d="M 275.5,436.5 C 277.369,438.635 278.036,441.302 277.5,444.5C 281.3,444.819 281.466,445.819 278,447.5C 275.723,444.301 274.89,440.635 275.5,436.5 Z"/></g>
<g><path style="opacity:0.827" fill="#6eacbe" d="M 285.5,436.5 C 290.863,436.688 293.03,439.355 292,444.5C 287.616,448.565 284.449,447.732 282.5,442C 282.613,439.601 283.613,437.768 285.5,436.5 Z M 285.5,439.5 C 289.138,438.737 290.638,440.07 290,443.5C 285.415,445.413 283.915,444.079 285.5,439.5 Z"/></g>
<g><path style="opacity:0.753" fill="#66a1b2" d="M 266.5,436.5 C 268.5,436.5 270.5,436.5 272.5,436.5C 272.5,437.5 272.5,438.5 272.5,439.5C 271.127,439.343 269.793,439.51 268.5,440C 273.628,441.562 273.628,442.895 268.5,444C 269.938,444.219 271.271,444.719 272.5,445.5C 271.652,447.283 270.319,447.783 268.5,447C 266.638,443.851 265.971,440.351 266.5,436.5 Z"/></g>
<g><path style="opacity:0.012" fill="#005554" d="M 298.5,444.5 C 299.833,445.167 299.833,445.167 298.5,444.5 Z"/></g>
<g><path style="opacity:0.722" fill="#69a9b9" d="M 188.5,436.5 C 190.369,438.635 191.036,441.302 190.5,444.5C 191.833,444.5 193.167,444.5 194.5,444.5C 194.336,441.813 194.503,439.146 195,436.5C 196.557,439.294 196.89,442.294 196,445.5C 193.667,448.167 191.333,448.167 189,445.5C 188.502,442.518 188.335,439.518 188.5,436.5 Z"/></g>
<g><path style="opacity:0.757" fill="#6aa7b7" d="M 200.5,436.5 C 202.484,436.383 204.15,437.05 205.5,438.5C 204.349,439.731 203.183,439.731 202,438.5C 201.5,439 201,439.5 200.5,440C 207.647,441.715 208.147,444.215 202,447.5C 199.474,446.872 198.641,445.539 199.5,443.5C 200.848,445.461 202.181,445.628 203.5,444C 198.424,442.927 197.424,440.427 200.5,436.5 Z"/></g>
<g><path style="opacity:0.812" fill="#57909d" d="M 247.5,437.5 C 247.337,439.857 247.503,442.19 248,444.5C 249.049,442.893 250.549,442.227 252.5,442.5C 251.737,443.268 250.737,443.768 249.5,444C 254.303,445.078 254.47,446.244 250,447.5C 249.127,447.265 248.293,446.931 247.5,446.5C 246.197,443.355 246.197,440.355 247.5,437.5 Z"/></g>
</svg>
